<svg width="24" height="24" viewBox="0 0 24 24" fill="none" xmlns="http://www.w3.org/2000/svg">
<path d="M24 0V24H0V0H24Z" fill="white" fill-opacity="0.01"/>
<path d="M12 20.4793C11.7533 20.4795 11.5121 20.4064 11.307 20.2693L8.7 18.5293H5C4.20435 18.5293 3.44129 18.2132 2.87868 17.6506C2.31607 17.088 2 16.3249 2 15.5293V5.5293C2 4.73365 2.31607 3.97059 2.87868 3.40798C3.44129 2.84537 4.20435 2.5293 5 2.5293H19C19.7956 2.5293 20.5587 2.84537 21.1213 3.40798C21.6839 3.97059 22 4.73365 22 5.5293V15.5293C22 16.3249 21.6839 17.088 21.1213 17.6506C20.5587 18.2132 19.7956 18.5293 19 18.5293H15.3L12.691 20.2693C12.4864 20.4059 12.246 20.4789 12 20.4793ZM15.5 9.5293C15.2033 9.5293 14.9133 9.61727 14.6666 9.78209C14.42 9.94691 14.2277 10.1812 14.1142 10.4553C14.0006 10.7294 13.9709 11.031 14.0288 11.3219C14.0867 11.6129 14.2296 11.8802 14.4393 12.09C14.6491 12.2997 14.9164 12.4426 15.2074 12.5005C15.4983 12.5584 15.7999 12.5286 16.074 12.4151C16.3481 12.3016 16.5824 12.1093 16.7472 11.8627C16.912 11.616 17 11.326 17 11.0293C17 10.6315 16.842 10.2499 16.5607 9.96864C16.2794 9.68733 15.8978 9.5293 15.5 9.5293ZM8.5 9.5293C8.20333 9.5293 7.91332 9.61727 7.66664 9.78209C7.41997 9.94691 7.22771 10.1812 7.11418 10.4553C7.00065 10.7294 6.97094 11.031 7.02882 11.3219C7.0867 11.6129 7.22956 11.8802 7.43934 12.09C7.64912 12.2997 7.91639 12.4426 8.20736 12.5005C8.49834 12.5584 8.79994 12.5286 9.07403 12.4151C9.34811 12.3016 9.58238 12.1093 9.7472 11.8627C9.91203 11.616 10 11.326 10 11.0293C10 10.6315 9.84196 10.2499 9.56066 9.96864C9.27936 9.68733 8.89782 9.5293 8.5 9.5293Z" fill="#3D5CFF"/>
</svg>
