<svg width="25" height="24" viewBox="0 0 25 24" fill="none" xmlns="http://www.w3.org/2000/svg">
<path d="M24.5 0V24H0.5V0H24.5Z" fill="white" fill-opacity="0.01"/>
<path d="M12.5 20.95C12.2533 20.9502 12.0121 20.8771 11.807 20.74L9.2 19H5.5C4.70435 19 3.94129 18.6839 3.37868 18.1213C2.81607 17.5587 2.5 16.7956 2.5 16V6C2.5 5.20435 2.81607 4.44129 3.37868 3.87868C3.94129 3.31607 4.70435 3 5.5 3H19.5C20.2956 3 21.0587 3.31607 21.6213 3.87868C22.1839 4.44129 22.5 5.20435 22.5 6V16C22.5 16.7956 22.1839 17.5587 21.6213 18.1213C21.0587 18.6839 20.2956 19 19.5 19H15.8L13.191 20.74C12.9864 20.8766 12.746 20.9496 12.5 20.95ZM16 10C15.7033 10 15.4133 10.088 15.1666 10.2528C14.92 10.4176 14.7277 10.6519 14.6142 10.926C14.5006 11.2001 14.4709 11.5017 14.5288 11.7926C14.5867 12.0836 14.7296 12.3509 14.9393 12.5607C15.1491 12.7704 15.4164 12.9133 15.7074 12.9712C15.9983 13.0291 16.2999 12.9994 16.574 12.8858C16.8481 12.7723 17.0824 12.58 17.2472 12.3334C17.412 12.0867 17.5 11.7967 17.5 11.5C17.5 11.1022 17.342 10.7206 17.0607 10.4393C16.7794 10.158 16.3978 10 16 10ZM9 10C8.70333 10 8.41332 10.088 8.16664 10.2528C7.91997 10.4176 7.72771 10.6519 7.61418 10.926C7.50065 11.2001 7.47094 11.5017 7.52882 11.7926C7.5867 12.0836 7.72956 12.3509 7.93934 12.5607C8.14912 12.7704 8.41639 12.9133 8.70736 12.9712C8.99834 13.0291 9.29994 12.9994 9.57403 12.8858C9.84811 12.7723 10.0824 12.58 10.2472 12.3334C10.412 12.0867 10.5 11.7967 10.5 11.5C10.5 11.1022 10.342 10.7206 10.0607 10.4393C9.77936 10.158 9.39782 10 9 10Z" fill="#F4F3FD"/>
</svg>
