<svg width="25" height="24" viewBox="0 0 25 24" fill="none" xmlns="http://www.w3.org/2000/svg">
<path d="M24.5 0V24H0.5V0H24.5Z" fill="white" fill-opacity="0.01"/>
<path d="M19.5 22H5.5C4.96957 22 4.46086 21.7893 4.08579 21.4142C3.71071 21.0391 3.5 20.5304 3.5 20V19C3.50159 17.6744 4.02888 16.4036 4.96622 15.4662C5.90356 14.5289 7.17441 14.0016 8.5 14H16.5C17.8256 14.0016 19.0964 14.5289 20.0338 15.4662C20.9711 16.4036 21.4984 17.6744 21.5 19V20C21.5 20.5304 21.2893 21.0391 20.9142 21.4142C20.5391 21.7893 20.0304 22 19.5 22ZM12.5 12C11.5111 12 10.5444 11.7068 9.72215 11.1573C8.8999 10.6079 8.25904 9.82705 7.8806 8.91342C7.50216 7.99979 7.40315 6.99446 7.59607 6.02455C7.789 5.05465 8.2652 4.16373 8.96447 3.46447C9.66373 2.76521 10.5546 2.289 11.5245 2.09608C12.4945 1.90315 13.4998 2.00217 14.4134 2.3806C15.327 2.75904 16.1079 3.39991 16.6573 4.22215C17.2068 5.0444 17.5 6.0111 17.5 7C17.4984 8.3256 16.9711 9.59644 16.0338 10.5338C15.0964 11.4711 13.8256 11.9984 12.5 12Z" fill="#3D5CFF"/>
</svg>
